<svg width="40" height="40" viewBox="0 0 40 40" fill="none" xmlns="http://www.w3.org/2000/svg">
<g id="surface1422">
<path id="Vector" d="M35.4739 24.0577C33.1202 32.727 24.143 37.8872 15.4254 35.5819C6.70788 33.2765 1.5476 24.3775 3.90125 15.7082C6.2549 7.03896 15.2322 1.87869 23.9497 4.18406C32.6673 6.48943 37.8275 15.3884 35.4739 24.0577Z" fill="#E6AC39"/>
<path id="Vector_2" d="M12.0334 26.272L16.295 10.5743L22.7669 12.2858C24.6667 12.7883 26.0088 13.5343 26.7931 14.524C27.5774 15.5137 27.7778 16.7148 27.3959 18.1215C27.1874 18.8897 26.8046 19.517 26.255 19.9994C25.7024 20.4809 25.0361 20.7621 24.2605 20.8503C25.0073 21.2655 25.5282 21.8354 25.8228 22.5725C26.122 23.3046 26.1537 24.111 25.9132 24.9968C25.5041 26.5036 24.7139 27.5216 23.5421 28.0413C22.3664 28.5631 20.8922 28.5959 19.1089 28.1432L12.0334 26.272ZM17.7476 17.6896L21.1891 18.5997C22.8277 19.0015 23.8122 18.5995 24.1573 17.3282C24.3507 16.616 24.2826 16.0491 23.953 15.6276C23.6263 15.2068 23.0184 14.8758 22.1277 14.6402L18.8134 13.7637L17.7476 17.6896ZM17.1084 20.0439L15.8301 24.7527L19.6534 25.7638C20.4109 25.9641 22.242 26.0541 22.6982 24.3737C23.1544 22.6932 22.533 21.5006 21.053 21.0871L17.1084 20.0439Z" fill="#F2F2F2"/>
<path id="Vector_3" d="M19.3007 8.85307L21.6642 9.47868L20.6001 13.4016L18.2366 12.776L19.3007 8.85307ZM23.2418 9.89627L25.6054 10.5219L24.5413 14.4448L22.1778 13.8192L23.2418 9.89627ZM14.8338 25.3211L17.1973 25.9467L16.1332 29.8696L13.7697 29.244L14.8338 25.3211ZM18.7749 26.3643L21.1385 26.9899L20.0744 30.9128L17.7109 30.2872L18.7749 26.3643Z" fill="#F2F2F2"/>
</g>
</svg>
