<svg xmlns="http://www.w3.org/2000/svg" width="30" height="30" viewBox="0 0 30 30" fill="none">
  <path d="M15.3802 18.9004C16.3486 18.9004 17.2773 18.5157 17.9621 17.8309C18.6468 17.1462 19.0315 16.2175 19.0315 15.2491C19.0315 14.2807 18.6468 13.352 17.9621 12.6673C17.2773 11.9826 16.3486 11.5979 15.3802 11.5979C14.4119 11.5979 13.4832 11.9826 12.7984 12.6673C12.1137 13.352 11.729 14.2807 11.729 15.2491C11.729 16.2175 12.1137 17.1462 12.7984 17.8309C13.4832 18.5157 14.4119 18.9004 15.3802 18.9004Z" stroke="black" stroke-width="1.82562" stroke-miterlimit="10" stroke-linecap="round" stroke-linejoin="round"/>
  <path d="M3.20947 16.3201V14.178C3.20947 12.9123 4.24399 11.8656 5.52193 11.8656C7.72485 11.8656 8.62549 10.3077 7.51794 8.39688C6.88506 7.30151 7.26235 5.87752 8.3699 5.24464L10.4755 4.03973C11.4369 3.4677 12.6784 3.80849 13.2504 4.76998L13.3843 5.00123C14.4796 6.91204 16.2809 6.91204 17.3885 5.00123L17.5224 4.76998C18.0944 3.80849 19.3358 3.4677 20.2973 4.03973L22.4029 5.24464C23.5104 5.87752 23.8877 7.30151 23.2548 8.39688C22.1473 10.3077 23.0479 11.8656 25.2508 11.8656C26.5166 11.8656 27.5633 12.9001 27.5633 14.178V16.3201C27.5633 17.5859 26.5288 18.6325 25.2508 18.6325C23.0479 18.6325 22.1473 20.1904 23.2548 22.1012C23.8877 23.2088 23.5104 24.6206 22.4029 25.2535L20.2973 26.4584C19.3358 27.0304 18.0944 26.6896 17.5224 25.7281L17.3885 25.4969C16.2931 23.5861 14.4918 23.5861 13.3843 25.4969L13.2504 25.7281C12.6784 26.6896 11.4369 27.0304 10.4755 26.4584L8.3699 25.2535C7.83937 24.948 7.45171 24.4445 7.29199 23.8535C7.13226 23.2626 7.21352 22.6324 7.51794 22.1012C8.62549 20.1904 7.72485 18.6325 5.52193 18.6325C4.24399 18.6325 3.20947 17.5859 3.20947 16.3201Z" stroke="black" stroke-width="1.82562" stroke-miterlimit="10" stroke-linecap="round" stroke-linejoin="round"/>
</svg>