<svg width="289" height="288" viewBox="0 0 289 288" fill="none" xmlns="http://www.w3.org/2000/svg">
<path d="M96.41 24.5141H54.491V6.54877C54.4899 5.4045 54.161 4.28449 53.5432 3.32131C52.9255 2.35814 52.0447 1.59212 51.0051 1.11392C49.9656 0.635725 48.8108 0.465376 47.6774 0.623037C46.5441 0.780698 45.4796 1.25977 44.61 2.00354L2.69098 37.9342C2.03562 38.4963 1.50958 39.1936 1.14893 39.9781C0.788287 40.7627 0.601563 41.6159 0.601562 42.4794C0.601562 43.3428 0.788287 44.1961 1.14893 44.9806C1.50958 45.7652 2.03562 46.4624 2.69098 47.0246L44.61 82.9552C45.4796 83.699 46.5441 84.1781 47.6774 84.3357C48.8108 84.4934 49.9656 84.323 51.0051 83.8448C52.0447 83.3666 52.9255 82.6006 53.5432 81.6374C54.161 80.6743 54.4899 79.5543 54.491 78.41V60.4447H96.41C97.9982 60.4447 99.5214 59.8138 100.644 58.6907C101.768 57.5677 102.398 56.0445 102.398 54.4562V30.5025C102.398 28.9143 101.768 27.3911 100.644 26.268C99.5214 25.145 97.9982 24.5141 96.41 24.5141Z" fill="url(#paint0_linear_0_1)"/>
<path d="M285.946 241.541L244.027 205.61C243.157 204.867 242.093 204.388 240.959 204.23C239.826 204.072 238.671 204.243 237.632 204.721C236.592 205.199 235.711 205.965 235.093 206.928C234.476 207.891 234.147 209.011 234.146 210.156V228.121H192.227C190.638 228.121 189.115 228.752 187.992 229.875C186.869 230.998 186.238 232.521 186.238 234.109V258.063C186.238 259.651 186.869 261.175 187.992 262.298C189.115 263.421 190.638 264.052 192.227 264.052H234.146V282.017C234.147 283.161 234.476 284.281 235.093 285.244C235.711 286.208 236.592 286.974 237.632 287.452C238.671 287.93 239.826 288.1 240.959 287.943C242.093 287.785 243.157 287.306 244.027 286.562L285.946 250.632C286.601 250.069 287.127 249.372 287.488 248.588C287.848 247.803 288.035 246.95 288.035 246.086C288.035 245.223 287.848 244.37 287.488 243.585C287.127 242.801 286.601 242.103 285.946 241.541Z" fill="url(#paint1_linear_0_1)"/>
<g filter="url(#filter0_bi_0_1)">
<path d="M144.327 252.069C203.856 252.069 252.114 203.811 252.114 144.282C252.114 84.7523 203.856 36.4941 144.327 36.4941C84.7972 36.4941 36.5391 84.7523 36.5391 144.282C36.5391 203.811 84.7972 252.069 144.327 252.069Z" fill="white" fill-opacity="0.05"/>
<path d="M144.327 252.069C203.856 252.069 252.114 203.811 252.114 144.282C252.114 84.7523 203.856 36.4941 144.327 36.4941C84.7972 36.4941 36.5391 84.7523 36.5391 144.282C36.5391 203.811 84.7972 252.069 144.327 252.069Z" fill="url(#paint2_linear_0_1)" fill-opacity="0.2"/>
<path d="M250.318 144.282C250.318 202.819 202.864 250.273 144.327 250.273C85.7894 250.273 38.3355 202.819 38.3355 144.282C38.3355 85.7445 85.7894 38.2906 144.327 38.2906C202.864 38.2906 250.318 85.7445 250.318 144.282Z" stroke="url(#paint3_linear_0_1)" stroke-opacity="0.1" stroke-width="3.59292"/>
</g>
<g filter="url(#filter1_i_0_1)">
<path d="M144.304 227.207C190.096 227.207 227.218 190.085 227.218 144.293C227.218 98.5011 190.096 61.3794 144.304 61.3794C98.5123 61.3794 61.3906 98.5011 61.3906 144.293C61.3906 190.085 98.5123 227.207 144.304 227.207Z" fill="url(#paint4_linear_0_1)" fill-opacity="0.8"/>
</g>
<defs>
<filter id="filter0_bi_0_1" x="-35.3194" y="-35.3643" width="359.292" height="359.292" filterUnits="userSpaceOnUse" color-interpolation-filters="sRGB">
<feFlood flood-opacity="0" result="BackgroundImageFix"/>
<feGaussianBlur in="BackgroundImageFix" stdDeviation="35.9292"/>
<feComposite in2="SourceAlpha" operator="in" result="effect1_backgroundBlur_0_1"/>
<feBlend mode="normal" in="SourceGraphic" in2="effect1_backgroundBlur_0_1" result="shape"/>
<feColorMatrix in="SourceAlpha" type="matrix" values="0 0 0 0 0 0 0 0 0 0 0 0 0 0 0 0 0 0 127 0" result="hardAlpha"/>
<feOffset dy="23.9528"/>
<feGaussianBlur stdDeviation="17.9646"/>
<feComposite in2="hardAlpha" operator="arithmetic" k2="-1" k3="1"/>
<feColorMatrix type="matrix" values="0 0 0 0 1 0 0 0 0 1 0 0 0 0 1 0 0 0 0.15 0"/>
<feBlend mode="normal" in2="shape" result="effect2_innerShadow_0_1"/>
</filter>
<filter id="filter1_i_0_1" x="61.3906" y="61.3794" width="165.827" height="189.78" filterUnits="userSpaceOnUse" color-interpolation-filters="sRGB">
<feFlood flood-opacity="0" result="BackgroundImageFix"/>
<feBlend mode="normal" in="SourceGraphic" in2="BackgroundImageFix" result="shape"/>
<feColorMatrix in="SourceAlpha" type="matrix" values="0 0 0 0 0 0 0 0 0 0 0 0 0 0 0 0 0 0 127 0" result="hardAlpha"/>
<feOffset dy="23.9528"/>
<feGaussianBlur stdDeviation="11.9764"/>
<feComposite in2="hardAlpha" operator="arithmetic" k2="-1" k3="1"/>
<feColorMatrix type="matrix" values="0 0 0 0 1 0 0 0 0 1 0 0 0 0 1 0 0 0 0.1 0"/>
<feBlend mode="normal" in2="shape" result="effect1_innerShadow_0_1"/>
</filter>
<linearGradient id="paint0_linear_0_1" x1="0.601563" y1="0.565918" x2="117.164" y2="36.508" gradientUnits="userSpaceOnUse">
<stop stop-color="#FEFFF8"/>
<stop offset="1" stop-color="#E1FF01"/>
</linearGradient>
<linearGradient id="paint1_linear_0_1" x1="186.238" y1="204.173" x2="302.801" y2="240.115" gradientUnits="userSpaceOnUse">
<stop stop-color="#F5FFAB"/>
<stop offset="1" stop-color="#E1FF01"/>
</linearGradient>
<linearGradient id="paint2_linear_0_1" x1="36.5391" y1="36.4941" x2="290.48" y2="100.974" gradientUnits="userSpaceOnUse">
<stop stop-color="white"/>
<stop offset="1" stop-color="#E1FF01"/>
</linearGradient>
<linearGradient id="paint3_linear_0_1" x1="43.2758" y1="46.293" x2="252.114" y2="46.293" gradientUnits="userSpaceOnUse">
<stop stop-color="#FF99E7"/>
<stop offset="1" stop-color="#5DF4CE"/>
</linearGradient>
<linearGradient id="paint4_linear_0_1" x1="144.304" y1="61.3794" x2="144.304" y2="227.207" gradientUnits="userSpaceOnUse">
<stop stop-color="white"/>
<stop offset="1" stop-color="white" stop-opacity="0"/>
</linearGradient>
</defs>
</svg>
