<svg xmlns="http://www.w3.org/2000/svg" width="209" height="178" viewBox="0 0 209 178" fill="none">
<path d="M0.883647 177.338C0.883647 177.674 1.1561 177.947 1.49219 177.947C1.82828 177.947 2.10073 177.674 2.10073 177.338H0.883647ZM51.8659 123.74L48.961 129.825H55.9878L53.0829 123.74H51.8659ZM2.10073 177.338L2.10073 108.708H0.883647L0.883647 177.338H2.10073ZM51.8659 108.708V124.348H53.0829V108.708H51.8659ZM26.9833 83.8257C40.7255 83.8257 51.8659 94.966 51.8659 108.708H53.0829C53.0829 94.2938 41.3977 82.6086 26.9833 82.6086V83.8257ZM2.10073 108.708C2.10073 94.966 13.241 83.8257 26.9833 83.8257V82.6086C12.5689 82.6086 0.883647 94.2938 0.883647 108.708H2.10073Z" fill="#E1FF01" fill-opacity="0.1"/>
<path d="M205.42 36.1566L201.907 42.2421H208.933L205.42 36.1566ZM155.046 106.069C155.046 105.733 154.774 105.46 154.438 105.46C154.102 105.46 153.829 105.733 153.829 106.069H155.046ZM204.811 41.6335V151.847H206.028V41.6335H204.811ZM155.046 151.847V106.069H153.829V151.847H155.046ZM179.929 176.73C166.187 176.73 155.046 165.589 155.046 151.847H153.829C153.829 166.261 165.514 177.947 179.929 177.947V176.73ZM204.811 151.847C204.811 165.589 193.671 176.73 179.929 176.73V177.947C194.343 177.947 206.028 166.261 206.028 151.847H204.811Z" fill="#E1FF01" fill-opacity="0.1"/>
<path d="M103.456 106.257V151.847C103.456 165.925 92.0433 177.338 77.965 177.338V177.338C63.8866 177.338 52.4738 165.925 52.4738 151.847L52.4738 106.257" stroke="#E1FF01" stroke-opacity="0.1" stroke-width="1.21708" stroke-linecap="round"/>
<path d="M154.438 106.257V26.3523C154.438 12.2739 143.025 0.861208 128.947 0.861208V0.861208C114.869 0.861208 103.456 12.274 103.456 26.3523V106.257" stroke="#E1FF01" stroke-opacity="0.1" stroke-width="1.21708" stroke-linecap="round"/>
</svg>